<svg id="visual" viewBox="0 0 900 600" width="900" height="600" xmlns="http://www.w3.org/2000/svg" xmlns:xlink="http://www.w3.org/1999/xlink" version="1.1"><rect x="0" y="0" width="900" height="600" fill="#100f28"></rect><path d="M0 311L225 270L450 268L675 252L900 267L900 601L675 601L450 601L225 601L0 601Z" fill="#7100c4"></path><path d="M0 354L225 280L450 354L675 331L900 265L900 601L675 601L450 601L225 601L0 601Z" fill="#6b00af"></path><path d="M0 370L225 393L450 378L675 398L900 352L900 601L675 601L450 601L225 601L0 601Z" fill="#64009c"></path><path d="M0 410L225 441L450 413L675 417L900 454L900 601L675 601L450 601L225 601L0 601Z" fill="#5c0288"></path><path d="M0 476L225 451L450 484L675 483L900 458L900 601L675 601L450 601L225 601L0 601Z" fill="#530476"></path><path d="M0 519L225 544L450 508L675 541L900 538L900 601L675 601L450 601L225 601L0 601Z" fill="#4a0664"></path></svg>